<svg width="22" height="6" viewBox="0 0 22 6" fill="none" xmlns="http://www.w3.org/2000/svg">
<path d="M21.1814 4.69166C22.2547 3.61839 22.2547 1.87825 21.1814 0.804975C20.1082 -0.268301 18.368 -0.268301 17.2947 0.804975C16.2215 1.87825 16.2215 3.61839 17.2947 4.69166C18.368 5.76494 20.1082 5.76494 21.1814 4.69166Z" fill="#BABABA"/>
<path d="M12.9366 4.69166C14.0098 3.61839 14.0098 1.87825 12.9366 0.804975C11.8633 -0.268301 10.1231 -0.268301 9.04987 0.804975C7.97659 1.87825 7.97659 3.61839 9.04987 4.69166C10.1231 5.76494 11.8633 5.76494 12.9366 4.69166Z" fill="#BABABA"/>
<path d="M4.69168 4.69166C5.76496 3.61839 5.76496 1.87825 4.69168 0.804975C3.61841 -0.268301 1.87827 -0.268301 0.804997 0.804975C-0.268278 1.87825 -0.268279 3.61839 0.804997 4.69166C1.87827 5.76494 3.61841 5.76494 4.69168 4.69166Z" fill="#BABABA"/>
</svg>
