<svg width="15" height="20" viewBox="0 0 15 20" fill="none" xmlns="http://www.w3.org/2000/svg">
<path d="M14.3061 0H0.411687C0.184024 0 0 0.184436 0 0.411687V19.376C0 19.5411 0.0983931 19.6902 0.250306 19.7548C0.402218 19.8194 0.57842 19.7869 0.696986 19.6725L7.3589 13.2576L14.0208 19.6725C14.0986 19.7478 14.2016 19.7877 14.3061 19.7877C14.3605 19.7877 14.4156 19.777 14.4675 19.7548C14.6194 19.6902 14.7178 19.5407 14.7178 19.376V0.411687C14.7178 0.184436 14.5334 0 14.3061 0ZM13.8944 18.4082L7.6442 12.3897C7.56475 12.3127 7.46182 12.2744 7.3589 12.2744C7.25598 12.2744 7.15306 12.3127 7.0736 12.3897L0.823374 18.4082V0.823374H13.8944V18.4082Z" fill="#BABABA"/>
</svg>
